<svg id="google" xmlns="http://www.w3.org/2000/svg" viewBox="0 0 680.88 223.79"><defs><style>.cls-1{fill:#fff;}</style></defs><path class="cls-1" d="M199.89,297a6.18,6.18,0,0,0-2.23-.16h-52c-2.42,0-2.18.28-2.18-2.2q0-9.9,0-19.82c0-1.61,0-1.62,1.67-1.62h76.25c1.57,0,1.6,0,1.89,1.62a57,57,0,0,1,1,8.84c0,1.79.23,3.56.21,5.35-.14,11.88-2.14,23.39-7.05,34.29a71.66,71.66,0,0,1-31.53,34.25,82.78,82.78,0,0,1-26.66,9,92.88,92.88,0,0,1-22.21.92C117.76,366,100.62,359.05,86,346.31a87.73,87.73,0,0,1-28.33-47.16,80.62,80.62,0,0,1-1.86-24.43,83.09,83.09,0,0,1,8-29.77,88.65,88.65,0,0,1,15.47-22.76A87.07,87.07,0,0,1,124.85,196a87.91,87.91,0,0,1,73.36,17.54c1.29,1.06,2.41,2.31,3.67,3.39.76.65.62,1.09,0,1.69s-1.38,1.47-2.09,2.2l-12.55,12.93c-1,1-1,1-2.07.1a60.82,60.82,0,0,0-28.47-14.68,61.54,61.54,0,0,0-19.66-1,61.3,61.3,0,0,0-47.43,31.08,65.66,65.66,0,0,0,1.09,65.29,60.57,60.57,0,0,0,23.34,22,61.45,61.45,0,0,0,21,6.88,68.13,68.13,0,0,0,15.83.17,61.44,61.44,0,0,0,21.49-5.92c11.83-5.8,20.28-14.74,24.72-27.26A53.9,53.9,0,0,0,199.89,297Z" transform="translate(-55.56 -194.1)"/><path class="cls-1" d="M559.35,268.35v-4.14c0-1.19,0-2.39,0-3.57,0-.88.32-1.16,1.15-1.13,1.07.05,2.14,0,3.22,0h16.78c.42,0,.83,0,1.25,0,.64,0,1,.2,1,.92,0,.35,0,.71,0,1.07,0,33.08,0,66.17,0,99.25a71.08,71.08,0,0,1-4.59,26.16q-9.36,23.76-34.26,29.49A60.53,60.53,0,0,1,527,417.8c-11.85-.63-22.51-4.5-31.59-12.27A59,59,0,0,1,482,388.58c-.45-.84-.91-1.67-1.32-2.53s-.46-1,.64-1.51l20-8.4c.57.21.61.74.8,1.15a33.46,33.46,0,0,0,11.26,13.54,28.33,28.33,0,0,0,13.93,4.92,31.51,31.51,0,0,0,18.38-3.67c6.25-3.49,10-8.92,12.14-15.64a35.66,35.66,0,0,0,1.54-10c.07-3.69,0-7.38,0-11.06,0-.23,0-.48-.18-.66-.45-.16-.62.24-.83.48a34.19,34.19,0,0,1-19.94,11.56c-13,2.4-25-.09-36.18-7a54.75,54.75,0,0,1-20.26-22,57.19,57.19,0,0,1,10.71-66.15,52.4,52.4,0,0,1,23.91-13.86,48.15,48.15,0,0,1,15.52-1.6c10.16.65,19,4.35,26.21,11.69.21.21.44.4.67.59C559,268.44,559.08,268.4,559.35,268.35Zm1.84,42.92a35.73,35.73,0,0,0-.51-6.29c-1.18-7-3.93-13.24-9-18.24-7.21-7.14-15.85-10.25-26-8.16S508.29,286.7,503.81,296a37.1,37.1,0,0,0-3.19,20.85c.95,8.13,4.12,15.22,10.18,20.83,6.64,6.15,14.58,9,23.55,7.89,10.4-1.23,18-6.84,22.91-16.1C560.16,324,561.25,318.06,561.19,311.27Z" transform="translate(-55.56 -194.1)"/><path class="cls-1" d="M288.79,367.56a56.54,56.54,0,0,1-26.34-5.9A53,53,0,0,1,239,338.73a56.75,56.75,0,0,1-6.41-33.64,54.78,54.78,0,0,1,47.11-48.34c16.76-2.3,31.88,1.73,45.09,12.35A49.66,49.66,0,0,1,341.93,296c3.06,11.85,3,23.73-1.22,35.29-6.82,18.53-20.07,30-39.17,34.82A49.22,49.22,0,0,1,288.79,367.56Zm-32.27-56.25a38.38,38.38,0,0,0,3.75,16.92c5.83,11.71,17.56,18.8,31.12,17.35,11.74-1.25,20.1-7.76,25.1-18.4,3.51-7.46,4-15.34,2.41-23.36-3.47-17.31-18.79-27.66-34.33-25.65a30.5,30.5,0,0,0-19.35,10C259.2,294.83,256.68,302.83,256.52,311.31Z" transform="translate(-55.56 -194.1)"/><path class="cls-1" d="M465.74,311.74c-.08,14-4.23,26.55-13.53,37.17a53.26,53.26,0,0,1-30.66,17.54,58,58,0,0,1-30.76-2.1,52.94,52.94,0,0,1-31.1-27.7A54.06,54.06,0,0,1,354,308.82c1.49-21.55,11.8-37.49,31.2-47.25a53.72,53.72,0,0,1,27.67-5.41A56.63,56.63,0,0,1,447,269.47a51.7,51.7,0,0,1,17.62,30.39A58.35,58.35,0,0,1,465.74,311.74Zm-24.25.06A35.52,35.52,0,0,0,439.33,299c-4.55-11.88-12.94-19.28-25.69-20.82-11.81-1.43-21.65,2.83-28.63,12.44-7.8,10.75-8.75,22.72-4.06,34.92,4.5,11.68,13.32,18.55,25.79,20,10.65,1.22,19.65-2.62,26.67-10.72C439.1,328.25,441.46,320.41,441.49,311.8Z" transform="translate(-55.56 -194.1)"/><path class="cls-1" d="M735.79,343.25c-8.37,11.12-18.67,19.25-32.18,22.61A56.14,56.14,0,0,1,666,362.62a51.37,51.37,0,0,1-23.76-21.33A55.49,55.49,0,0,1,635,318.72a62.09,62.09,0,0,1,1.8-23.7c5-17.49,15.6-30.18,33-36.13s33.57-3.13,47.86,8.71a52.75,52.75,0,0,1,14.81,20.27c1.24,2.89,2.46,5.8,3.68,8.7.47,1.14.47,1.19-.66,1.67-4.05,1.7-8.11,3.37-12.17,5.06q-29.77,12.38-59.55,24.76c-2.12.89-1.9.56-.83,2.41a31.26,31.26,0,0,0,8.39,9.84c5.66,4.17,12.11,5.61,19,5.43,10.18-.28,18.29-4.59,24.43-12.66a16.15,16.15,0,0,0,1.25-1.73c.43-.73.84-.84,1.56-.33,1.55,1.1,3.15,2.13,4.74,3.18l11.88,7.92C734.68,342.45,735.15,342.8,735.79,343.25Zm-77.51-33.18a4.45,4.45,0,0,0,1.78-.57l22-9.21L706.56,290c1.64-.69,1.65-.74.72-2.27a19.79,19.79,0,0,0-7.49-7.21,24.66,24.66,0,0,0-23.94-.27c-9.32,4.72-15.35,12.21-17.45,22.58A16.54,16.54,0,0,0,658.28,310.07Z" transform="translate(-55.56 -194.1)"/><path class="cls-1" d="M623.48,282.15q0,39.81,0,79.62c0,2.92.38,2.5-2.59,2.51-6.55,0-13.09,0-19.64,0-.42,0-.84,0-1.25,0-.65,0-1-.2-1-.91,0-.36,0-.72,0-1.08V201.81a5.61,5.61,0,0,0,0-.71c-.13-1,.39-1.2,1.26-1.19,7.32,0,14.64,0,22,0,1.22,0,1.22,0,1.26,1.35,0,.47,0,.95,0,1.43Z" transform="translate(-55.56 -194.1)"/></svg>