<svg id="usuario" xmlns="http://www.w3.org/2000/svg" viewBox="0 0 401.46 401.46"><defs><style>.cls-1{fill:#e2e2e3;}.cls-2{fill:#fff;}</style></defs><path class="cls-1" d="M396.08,348.6c86,0,155.64,36.44,155.64,81.4,0,.93,0,1.86-.1,2.78A199.87,199.87,0,0,0,596.73,306c0-110.86-89.87-200.73-200.73-200.73S195.27,195.14,195.27,306a199.88,199.88,0,0,0,45.28,127c-.07-1-.12-2-.12-3C240.43,385,310.12,348.6,396.08,348.6Zm.43-195.42a80.08,80.08,0,1,1-80.07,80.08A80.08,80.08,0,0,1,396.51,153.18Z" transform="translate(-195.27 -105.27)"/><circle class="cls-2" cx="201.24" cy="127.99" r="80.08"/><path class="cls-2" d="M396,506.73a200.3,200.3,0,0,0,155.62-74c.06-.92.1-1.85.1-2.78,0-45-69.68-81.4-155.64-81.4S240.43,385,240.43,430c0,1,0,2,.12,3A200.31,200.31,0,0,0,396,506.73Z" transform="translate(-195.27 -105.27)"/></svg>